<?xml version="1.0" encoding="utf-8"?>
<!-- Generator: Adobe Illustrator 16.0.0, SVG Export Plug-In . SVG Version: 6.00 Build 0)  -->
<!DOCTYPE svg PUBLIC "-//W3C//DTD SVG 1.1//EN" "http://www.w3.org/Graphics/SVG/1.1/DTD/svg11.dtd">
<svg version="1.1" id="Layer_1" xmlns="http://www.w3.org/2000/svg" xmlns:xlink="http://www.w3.org/1999/xlink" x="0px" y="0px"
	 width="588px" height="588px" viewBox="0 0 588 588" enable-background="new 0 0 588 588" xml:space="preserve">
<path fill="#C9EDDC" d="M294,1C189.066,1,74,162.614,74,322.5C74,482.387,189.066,587,294,587c104.934,0,220-104.613,220-264.5
	C514,162.614,398.934,1,294,1z M294,259.5c-37.655,0-69.162-26.821-76.424-62.363c-4.704,15.1-10.561,28.448-21.771,28.448
	c-11.844,0-45.273-17.536-54.602-24c-16.992-11.774-12.131-33.624-12.131-57.333c0-8.77,13.324-26.334,16.131-34
	c1.385-3.784,2.251-7.687,3.021-11.51l-0.005-0.001c7.167-9.966,14.694-19.346,22.503-28.05c-0.048,0.002-0.098,0-0.147,0.003
	l0.475-0.372c-0.11,0.122-0.218,0.247-0.328,0.369c6.208-0.3,12.874,1.129,19.814,1.129c20.097,0,49.498,1.189,60.5,17.765
	c4.017,6.051,7.091,13.642,9.049,21.685c10.261-4.975,21.767-7.77,33.915-7.77c43.01,0,78,34.991,78,78S337.01,259.5,294,259.5z"/>
<path fill="none" stroke="#000000" stroke-width="2" stroke-miterlimit="10" d="M514,322.5C514,162.614,398.934,1,294,1
	C189.066,1,74,162.614,74,322.5C74,482.387,189.066,587,294,587C398.934,587,514,482.387,514,322.5z"/>
<path fill="#E9F8F1" d="M424.385,94.501c23.024,31.62,16.214,62.513-2.938,66.82c-40.946,9.208-31.518-41.381-47.321-69.824
	c-11.438-20.59-7.021-28.931-7.021-28.931C382.559,50.459,410.519,75.458,424.385,94.501z"/>
<path fill="#A9C2B6" d="M93.012,427.682c3.16-17.537,12.744-32.557,29.837-43.899c15.077-10.009,24.849-15.195,45.568-16.253
	C187.913,366.533,193.556,403.522,209,411c25.739,12.462,90.507,12.539,91.854,38.931c0.765,14.968,34.914,39.985-3.232,71.271
	c-21.047,17.261-57.83,23.938-89.521,12.765c-27.518-9.701-24.827-33.169-35.859-36.161c-9.982-2.707-23.834,1.504-36.531,4.502
	c-17.366-21.342-32.03-46.387-42.701-74.626H93.012z"/>
<path fill="#A9C2B6" d="M377.402,237.931c18.871-0.097,13.41,21.692,25.538,34.837c15.013,16.271,33.921,24.523,37.262,37.232
	c3.661,13.932,1.255,31.882,1.276,44.195c0.048,28.131-4.764,45.298-20.522,49.438c-10.601,2.787-27.241,9.35-38.024-2.067
	c-12.265-12.981-10.26-47.785-16.658-72.133c-5.496-20.911-24.547-51.028-22.051-67.272
	C347.188,242.867,364.684,237.996,377.402,237.931z"/>
<path opacity="0.4" fill="#97B2A5" enable-background="new    " d="M457.448,495.754C426,544.335,352.588,585,294,585
	C189.066,585,74,480.387,74,320.5c0-15.182,3.006-45.453,3.006-45.453C84,498,308,619,457.448,495.754z"/>
<path fill="#A9C2B6" d="M170.575,70.694c0.049-0.002,0.099,0,0.147-0.003c0.11-0.122,0.218-0.247,0.328-0.369L170.575,70.694z"/>
<path fill="#A9C2B6" d="M260.085,111.27c-1.958-8.042-5.032-15.633-9.049-21.685c-11.002-16.576-40.403-17.765-60.5-17.765
	c-6.94,0-13.606-1.429-19.814-1.129c-7.809,8.705-15.336,18.084-22.503,28.05l0.005,0.001c-0.77,3.823-1.636,7.726-3.021,11.51
	c-2.807,7.666-16.131,25.23-16.131,34c0,23.709-4.861,45.559,12.131,57.333c9.329,6.464,42.758,24,54.602,24
	c11.21,0,17.067-13.348,21.771-28.448C216.544,192.084,216,186.854,216,181.5C216,150.639,234.018,123.909,260.085,111.27z"/>
<path opacity="0.3" fill="#FFFFFF" d="M294,103.5c-12.148,0-23.654,2.794-33.915,7.77C234.018,123.909,216,150.639,216,181.5
	c0,5.354,0.544,10.584,1.576,15.637C224.838,232.679,256.345,259.5,294,259.5c43.01,0,78-34.991,78-78S337.01,103.5,294,103.5z"/>
<g>
	<path fill="#303030" d="M292,87.25c-54.038,0-98,43.962-98,98s43.962,98,98,98c54.037,0,98-43.962,98-98S346.037,87.25,292,87.25z
		 M292,263.25c-43.009,0-78-34.991-78-78s34.991-78,78-78c43.01,0,78,34.991,78,78S335.01,263.25,292,263.25z"/>
	<path fill="#565656" d="M294,83.5c-54.038,0-98,43.962-98,98s43.962,98,98,98c54.037,0,98-43.962,98-98S348.037,83.5,294,83.5z
		 M294,259.5c-43.009,0-78-34.991-78-78s34.991-78,78-78c43.01,0,78,34.991,78,78S337.01,259.5,294,259.5z"/>
	<circle fill="#161616" cx="287.25" cy="93.25" r="6.75"/>
	<circle fill="#161616" cx="237.25" cy="114.25" r="6.75"/>
	<circle fill="#161616" cx="213.25" cy="147.953" r="6.75"/>
	<circle fill="#161616" cx="209.25" cy="200.953" r="6.75"/>
	<circle fill="#161616" cx="226.75" cy="237.931" r="6.75"/>
	<circle fill="#161616" cx="244" cy="254.619" r="6.75"/>
	<circle fill="#161616" cx="280.5" cy="268.119" r="6.75"/>
	<circle fill="#161616" cx="346.5" cy="251.431" r="6.75"/>
	<circle fill="#161616" cx="373.017" cy="218.835" r="6.75"/>
	<circle fill="#161616" cx="382.017" cy="181.5" r="6.75"/>
	<circle fill="#161616" cx="368.517" cy="134.453" r="6.75"/>
	<circle fill="#161616" cx="333" cy="103.5" r="6.75"/>
</g>
<path opacity="0.5" fill="#FFFFFF" d="M217.576,197.137C224.838,232.679,256.345,259.5,294,259.5
	c22.298,0,42.424-9.419,56.652-24.47c-27.819,4.274-62.876,3.555-89.317-17.53c-21.745-17.34-33.473-42.104-39.769-64.909
	C217.983,161.536,216,171.29,216,181.5C216,186.854,216.544,192.084,217.576,197.137z"/>
</svg>
