<?xml version="1.0" encoding="utf-8"?>
<!-- Generator: Adobe Illustrator 16.0.0, SVG Export Plug-In . SVG Version: 6.00 Build 0)  -->
<!DOCTYPE svg PUBLIC "-//W3C//DTD SVG 1.1//EN" "http://www.w3.org/Graphics/SVG/1.1/DTD/svg11.dtd">
<svg version="1.1" id="Layer_1" xmlns="http://www.w3.org/2000/svg" xmlns:xlink="http://www.w3.org/1999/xlink" x="0px" y="0px"
	 width="588px" height="588px" viewBox="0 0 588 588" enable-background="new 0 0 588 588" xml:space="preserve">
<path fill="#C9EDDC" d="M514,322.5C514,162.614,398.934,1,294,1S74,162.614,74,322.5C74,482.387,189.066,587,294,587
	S514,482.387,514,322.5z"/>
<path fill="none" stroke="#000000" stroke-width="2" stroke-miterlimit="10" d="M514,322.5C514,162.614,398.934,1,294,1
	S74,162.614,74,322.5C74,482.387,189.066,587,294,587S514,482.387,514,322.5z"/>
<path fill="#E9F8F1" d="M424.385,94.501c23.024,31.62,16.214,62.513-2.938,66.82c-40.946,9.208-31.517-41.381-47.321-69.824
	c-11.439-20.59-7.021-28.931-7.021-28.931C382.558,50.459,410.519,75.458,424.385,94.501z"/>
<path fill="#A9C2B6" d="M170.575,70.694c6.249-0.33,12.967,1.126,19.961,1.126c20.097,0,49.498,1.189,60.5,17.765
	c7.291,10.984,11.499,27.03,11.5,41.668c0.001,13.772-26.144,19.719-32.667,30.332c-10.871,17.688-13.182,64-34.064,64
	c-11.844,0-45.273-17.536-54.602-24c-16.992-11.774-12.131-33.624-12.131-57.333c0-8.77,13.324-26.334,16.131-34
	c1.385-3.784,2.251-7.687,3.021-11.51l-0.005-0.001c7.268-10.105,14.904-19.612,22.831-28.419L170.575,70.694z"/>
<path fill="#A9C2B6" d="M93.012,427.682c3.16-17.537,12.744-32.557,29.837-43.9c15.077-10.009,24.849-15.195,45.568-16.253
	C187.913,366.533,193.556,403.522,209,411c25.739,12.462,90.507,12.539,91.854,38.931c0.764,14.967,34.913,39.985-3.233,71.271
	c-21.047,17.261-57.83,23.938-89.521,12.765c-27.518-9.701-24.827-33.169-35.859-36.161c-9.982-2.707-23.834,1.504-36.531,4.502
	c-17.366-21.342-32.03-46.387-42.701-74.626L93.012,427.682z"/>
<path fill="#A9C2B6" d="M377.402,237.931c18.871-0.097,13.41,21.692,25.538,34.837c15.013,16.271,33.921,24.523,37.262,37.232
	c3.661,13.932,1.255,31.882,1.276,44.195c0.048,28.131-4.763,45.298-20.522,49.439c-10.601,2.787-27.241,9.349-38.025-2.068
	c-12.264-12.981-10.259-47.785-16.657-72.132c-5.497-20.912-24.548-51.029-22.051-67.273
	C347.188,242.867,364.684,237.996,377.402,237.931z"/>
<path opacity="0.4" fill="#97B2A5" d="M457.448,495.754C426,544.335,352.588,585,294,585C189.066,585,74,480.387,74,320.5
	c0-15.182,3.006-45.453,3.006-45.453C84,498,308,619,457.448,495.754z"/>
</svg>
