<?xml version="1.0" encoding="utf-8"?>
<!-- Generator: Adobe Illustrator 16.0.0, SVG Export Plug-In . SVG Version: 6.00 Build 0)  -->
<!DOCTYPE svg PUBLIC "-//W3C//DTD SVG 1.1//EN" "http://www.w3.org/Graphics/SVG/1.1/DTD/svg11.dtd">
<svg version="1.1" id="Layer_1" xmlns="http://www.w3.org/2000/svg" xmlns:xlink="http://www.w3.org/1999/xlink" x="0px" y="0px"
	 width="588px" height="588px" viewBox="0 0 588 588" enable-background="new 0 0 588 588" xml:space="preserve">
<path fill="#C9EDDC" d="M414.101,532.342c-20.351,20.292-43.919,35.449-69.045,44.056
	c-99.271,34.001-242.028-27.684-293.835-178.943C11.416,281.236,35.542,142.044,93.883,68.365l0.003,0.003l60.462,6.779
	l-26.437,92.56l74.233-8.562l-1.706,59.828l69.728,55.445l1.611,27.409l24.684,18.5l118.535,211.116L414.101,532.342z"/>
<path fill="#C9EDDC" d="M325.902,581.073l35.467-241.086l-7.583-29.955l16.057-22.272l-19.082-83.857l39.109-48.481l-62.666-38.012
	l78.634-57.303L363.23,16.675l0.011,0.059c24.533-4.985,47.945-4.487,68.684,2.534c99.393,33.649,156.557,223.627,105.285,375.07
	C498.916,507.45,409.708,570.772,325.591,581.56L325.902,581.073z"/>
<path fill="none" stroke="#000000" stroke-miterlimit="10" d="M350.185,416.011"/>
<path fill="none" stroke="#000000" stroke-width="2" stroke-miterlimit="10" d="M325.902,581.073l-0.311,0.486
	c84.117-10.787,173.324-74.109,211.618-187.221c51.271-151.443-5.893-341.421-105.285-375.07c-20.738-7.021-44.15-7.52-68.684-2.534
	l-0.011-0.059l42.607,43.431l-78.634,57.303l62.666,38.012l-39.109,48.481l19.082,83.857l-16.057,22.272l7.583,29.955
	l-11.184,76.023v7.482c0,0,4.801,10.026,0,17c-20.479,29.746-5.873,21.746,0,37"/>
<path fill="#E9F8F1" d="M492.6,90.948c18.027,34.711,6.666,64.236-12.915,65.626c-41.863,2.971-24.962-45.635-36.326-76.125
	c-8.228-22.071-2.609-29.656-2.609-29.656C457.842,41.137,481.743,70.042,492.6,90.948z"/>
<path fill="#A9C2B6" d="M103.937,492.692c-2.693-17.615,1.507-34.93,14.002-51.2c11.021-14.354,18.585-22.428,37.843-30.141
	c18.123-7.26,35.446,25.905,52.479,27.976c28.39,3.449,89.688-17.465,99.514,7.066c5.572,13.912,45.986,26.516,20.035,68.473
	c-14.318,23.149-46.954,41.386-80.556,41.084c-29.176-0.261-34.235-23.335-45.643-22.591c-10.32,0.674-22.06,9.146-33.101,16.097
	c-23.345-14.563-45.333-33.506-64.579-56.763L103.937,492.692z"/>
<path fill="#A9C2B6" d="M434.945,270.432c17.905,5.959,5.746,24.846,13.019,41.186c9.002,20.227,24.266,34.105,23.354,47.215
	c-1,14.371-9.035,30.602-12.964,42.271c-8.976,26.66-19.037,41.379-35.292,40.248c-10.935-0.76-28.801,0.119-35.354-14.154
	c-7.453-16.229,5.606-48.551,7.354-73.664c1.499-21.57-6.888-56.205,0.687-70.792C404.744,265.418,422.877,266.415,434.945,270.432z
	"/>
<path opacity="0.4" fill="#97B2A5" d="M509.813,449.493c-14.01,56.15-99.329,108.919-154.757,127.904
	C255.785,611.398,99.08,555.954,51.221,397.454c-4.389-14.534-11.885-43.975-11.885-43.975
	C118.197,562.137,408.363,614.515,509.813,449.493z"/>
<path fill="#A9C2B6" d="M357.397,135.392l-28.785-17.968l36.693-26.74l-0.146-0.205c2.491,12.272,1.172,27.371-3.164,40.18
	c-0.693,2.049-1.936,3.708-3.574,5.08L357.397,135.392z"/>
<path fill="#A9C2B6" d="M165.677,163.532l-37.618,4.125l14.449-50.59l-0.672,0.229c-15.909-11.302-43.526-3.06-62.242,3.35
	c-6.617,2.267-13.444,3.065-19.25,5.403l0.328-0.507c-4.645,10.9-8.789,22.369-12.39,34.284l0.005,0
	c0.511,3.867,0.956,7.839,0.873,11.868c-0.172,8.162-7.086,29.096-4.244,37.393c7.682,22.43,10.163,44.676,30.054,50.309
	c10.919,3.093,48.228,8.851,59.432,5.013c19.757-6.767,6.937-51.328,11.489-71.584c2.051-9.124,15.414-19.342,20.062-29.38
	L165.677,163.532z"/>
<path fill="none" stroke="#000000" stroke-width="2" stroke-miterlimit="10" d="M325.967,581.652
	C228.295,602.338,99.79,539.26,51.221,397.454C11.416,281.236,35.542,142.044,93.883,68.365l0.003,0.003l60.462,6.779l-26.437,92.56
	l74.233-8.562l-1.706,59.828l69.728,55.445l1.611,27.409l24.684,18.5l53.724,95.684"/>
</svg>
