<?xml version="1.0" encoding="utf-8"?>
<!-- Generator: Adobe Illustrator 16.0.0, SVG Export Plug-In . SVG Version: 6.00 Build 0)  -->
<!DOCTYPE svg PUBLIC "-//W3C//DTD SVG 1.1//EN" "http://www.w3.org/Graphics/SVG/1.1/DTD/svg11.dtd">
<svg version="1.1" id="Layer_1" xmlns="http://www.w3.org/2000/svg" xmlns:xlink="http://www.w3.org/1999/xlink" x="0px" y="0px"
	 width="588px" height="588px" viewBox="0 0 588 588" enable-background="new 0 0 588 588" xml:space="preserve">
<path fill="#C9EDDC" d="M330,329l-17.357-25.5L320,277.047L272,202l21-56.047L219.997,130L275,51l-55.003-26.005l-0.002-0.004
	C140.928,75.79,73,199.655,73,322.5C73,482.387,188.066,587,293,587s220-104.613,220-264.5C513,162.614,397.934,1,293,1
	c-21.895,0-44.23,7.036-65.869,19.625l-0.029-0.052l54.284,27.474l-56.105,79.493l71.547,15.909l-21.498,58.462l44.966,73.31
	l-8.066,26.245l16.667,25.958L330,329z"/>
<path fill="#E9F8F1" d="M423.385,94.501c23.024,31.62,16.214,62.513-2.938,66.82c-40.946,9.208-31.517-41.381-47.321-69.824
	c-11.439-20.59-7.021-28.931-7.021-28.931C381.558,50.459,409.519,75.458,423.385,94.501z"/>
<path fill="#A9C2B6" d="M92.012,429.682c3.16-17.537,12.744-32.557,29.837-43.9c15.077-10.009,24.849-15.195,45.568-16.253
	C186.913,368.533,192.556,405.522,208,413c25.739,12.462,90.507,12.539,91.854,38.931c0.764,14.967,34.913,39.985-3.233,71.271
	c-21.047,17.261-57.83,23.938-89.521,12.765c-27.518-9.701-24.827-33.169-35.859-36.161c-9.982-2.707-23.834,1.504-36.531,4.502
	c-17.366-21.342-32.03-46.387-42.701-74.626L92.012,429.682z"/>
<path fill="#A9C2B6" d="M376.402,237.931c18.871-0.097,13.41,21.692,25.538,34.837c15.013,16.271,33.921,24.523,37.262,37.232
	c3.661,13.932,1.255,31.882,1.276,44.195c0.048,28.131-4.763,45.298-20.522,49.439c-10.601,2.787-27.241,9.349-38.025-2.068
	c-12.264-12.981-10.259-47.785-16.657-72.132c-5.497-20.912-24.548-51.029-22.051-67.273
	C346.188,242.867,363.684,237.996,376.402,237.931z"/>
<path opacity="0.4" fill="#97B2A5" d="M456.448,497.754C425,546.335,351.588,587,293,587C188.066,587,73,482.387,73,322.5
	c0-15.182,3.006-45.453,3.006-45.453C83,500,307,621,456.448,497.754z"/>
<path fill="#A9C2B6" d="M258.698,135.21l-33.026-7.789l26.181-37.094l-0.204-0.147c6.295,10.825,9.887,25.55,9.888,39.073
	c0,2.163-0.645,4.132-1.757,5.958H258.698z"/>
<path fill="#A9C2B6" d="M257.079,138.287L220.153,130l30.062-43.179l-0.709-0.001c-11.39-15.847-40.188-16.999-59.971-16.999
	c-6.994,0-13.712-1.456-19.961-1.126l0.475-0.374c-7.927,8.807-15.563,18.314-22.831,28.419l0.005,0.001
	c-0.77,3.824-1.636,7.726-3.021,11.51c-2.807,7.666-16.131,25.23-16.131,34c0,23.709-4.861,45.559,12.131,57.333
	c9.328,6.464,42.758,24,54.602,24c20.883,0,23.193-46.312,34.064-64c4.896-7.967,20.849-13.304,28.499-21.294L257.079,138.287z"/>
<path fill="none" stroke="#000000" stroke-width="2" stroke-miterlimit="10" d="M331,329l-17.357-25.5L321,277.047L273,202
	l21-56.047L220.997,130L276,51l-55.003-26.005l-0.002-0.004C141.928,75.79,74,199.655,74,322.5C74,482.387,189.066,587,294,587
	s220-104.613,220-264.5C514,162.614,398.934,1,294,1c-21.895,0-44.23,7.036-65.869,19.625l-0.029-0.052l54.284,27.474
	l-56.105,79.493l71.547,15.909l-21.498,58.462l44.966,73.31l-8.066,26.245l16.667,25.958L331,329z"/>
</svg>
