<?xml version="1.0" encoding="utf-8"?>
<!-- Generator: Adobe Illustrator 16.0.0, SVG Export Plug-In . SVG Version: 6.00 Build 0)  -->
<!DOCTYPE svg PUBLIC "-//W3C//DTD SVG 1.1//EN" "http://www.w3.org/Graphics/SVG/1.1/DTD/svg11.dtd">
<svg version="1.1" id="Layer_1" xmlns="http://www.w3.org/2000/svg" xmlns:xlink="http://www.w3.org/1999/xlink" x="0px" y="0px"
	 width="919.777px" height="366.862px" viewBox="0 0 919.777 366.862" enable-background="new 0 0 919.777 366.862"
	 xml:space="preserve">
<g>
	<path fill="#4C3B4D" d="M160.408,112.852c4.021-3.019,6.038-6.539,6.038-10.567c0-3.521-1.763-6.917-5.284-10.191
		c-3.526-3.267-8.178-4.906-13.964-4.906c-7.802,0-15.475,8.557-23.024,25.665c-12.078-7.294-26.418-10.945-43.026-10.945
		c-21.891,0-39.575,5.791-53.163,17.362c-13.588,11.576-20.326,26.549-20.326,44.914v7.925c0,19.881,7.741,35.855,23.345,47.934
		c-12.833,8.556-19.277,18.372-19.277,29.438c0,11.076,5.27,19.127,15.839,24.157c-18.371,9.312-27.559,22.646-27.559,40.006
		c0,16.354,8.046,29.312,24.152,38.877c16.1,9.56,35.854,14.342,59.255,14.342c23.146,0,42.649-4.97,58.501-14.909
		c15.852-9.943,23.778-24.72,23.778-44.348c0-13.085-3.906-23.653-11.702-31.705c-7.802-8.048-17.237-13.398-28.307-16.039
		c-11.075-2.641-22.21-4.653-33.402-6.04c-11.199-1.381-20.699-3.078-28.496-5.093c-7.802-2.013-11.701-5.154-11.701-9.438
		c0-2.511,1.509-5.03,4.529-7.547c7.295,2.263,15.475,3.396,24.534,3.396c21.892,0,39.709-5.973,53.673-17.928
		c13.966-11.949,20.838-26.985,20.838-45.103v-7.925c0-14.343-4.296-26.667-13.101-36.988
		C145.072,124.176,151.095,119.398,160.408,112.852z M66.427,282.695c5.785,0.756,9.873,1.257,12.268,1.511
		c2.388,0.247,6.226,0.812,11.511,1.697c5.284,0.879,9.118,1.889,11.512,3.019c2.388,1.133,5.154,2.577,8.303,4.341
		c3.144,1.759,5.344,3.964,6.605,6.604c1.256,2.644,1.888,5.723,1.888,9.249c0,8.051-3.397,14.464-10.19,19.248
		c-6.795,4.779-15.353,7.171-25.667,7.171c-10.321,0-19-2.392-26.043-7.171c-7.047-4.784-10.568-11.322-10.568-19.626
		C46.046,297.662,52.84,288.982,66.427,282.695z M108.659,172.108c0,10.068-2.374,18.183-7.15,24.345
		c-4.783,6.169-11.313,9.248-19.615,9.248c-8.559,0-15.257-3.208-20.035-9.625c-4.782-6.415-7.2-14.531-7.2-24.343v-7.549
		c0-9.56,2.423-17.421,7.205-23.589c4.777-6.163,11.341-9.248,19.645-9.248c8.304,0,14.897,3.149,19.803,9.435
		c4.906,6.293,7.348,14.095,7.348,23.402V172.108z"/>
	<path fill="#4C3B4D" d="M471.399,142.37c3.775,0,6.795-1.761,9.06-5.583c2.264-3.822,3.396-8.251,3.396-13.441
		c0-5.185-1.133-9.552-3.396-13.374c-2.265-3.822-5.284-5.602-9.06-5.602h-44.74V41.7c0-4.116-2.352-7.566-7.258-10.349
		c-4.907-2.784-10.582-4.175-17.121-4.175c-6.04,0-11.31,1.432-16.34,4.293c-5.036,2.859-7.281,6.405-7.281,10.627v180.924
		c0,40.291,22.787,60.35,69.34,60.35h14.721c6.539,0,11.635-2.066,15.286-6.277c3.646-4.209,5.472-9.321,5.472-15.37
		c0-5.792-1.826-10.808-5.472-15.019c-3.651-4.212-8.747-6.334-15.286-6.334h-14.721c-7.802,0-13.377-1.406-16.519-4.285
		c-3.149-2.876-4.821-7.762-4.821-14.71V142.37H471.399z"/>
	<path fill="#4C3B4D" d="M625.011,232.876c-2.017,0-6.669,1.827-13.966,5.471c-7.3,3.65-15.037,5.475-23.588,5.475
		c-24.662,0-36.799-11.483-36.799-34.459v-29.97c0-22.97,12.012-34.458,36.422-34.458c8.549,0,16.446,1.698,23.87,5.095
		c7.421,3.397,11.843,5.096,13.353,5.096c5.284,0,9.789-2.642,13.563-7.926c3.775-5.285,5.65-10.569,5.65-15.853
		c0-7.548-5.798-14.342-17.367-20.381c-11.577-6.04-25.921-9.059-43.03-9.059c-27.176,0-47.524,7.111-61.112,21.325
		c-13.586,14.219-20.349,32.902-20.349,56.049v30.193c0,23.402,6.762,42.148,20.348,56.236
		c13.588,14.097,34.074,21.137,61.505,21.137c17.106,0,31.755-3.209,43.962-9.623c12.201-6.417,18.301-13.523,18.301-21.326
		c0-5.284-1.953-10.438-5.854-15.475C636.017,235.393,631.051,232.876,625.011,232.876z"/>
	<path fill="#4C3B4D" d="M768.053,101.907c-11.324,0-21.055,2.795-29.356,8.38c-8.306,5.584-14.038,12.437-18.038,20.558V15.087
		c0-4.524-2.476-8.168-7.251-10.934C708.625,1.387,702.799,0,696.004,0c-7.301,0-13.245,1.387-17.646,4.147
		c-4.404,2.766-6.7,6.41-6.7,10.934v252.914c0,4.021,2.398,7.607,7.057,10.743c4.654,3.146,10.418,4.714,17.211,4.714
		c6.54,0,12.367-1.629,17.272-4.89c4.907-3.262,7.46-6.775,7.46-10.543v-89.211c0-10.036,2.998-18.188,9.167-24.461
		c6.163-6.275,13.358-9.413,21.661-9.413c8.803,0,16.645,3.515,23.191,10.538c6.541,7.03,9.98,14.808,9.98,23.336v89.211
		c0,4.771,2.266,8.531,7.172,11.293c4.906,2.759,10.407,4.14,16.7,4.14c6.541,0,12.063-1.381,16.969-4.152
		c4.911-2.767,7.159-6.54,7.159-11.323v-89.451c0-20.882-6.326-38.875-19.281-53.972
		C800.413,109.455,785.417,101.907,768.053,101.907z"/>
	<path fill="#4C3B4D" d="M874.58,57.676c5.341,4.329,11.931,6.488,19.762,6.488c7.025,0,13.021-2.159,17.985-6.488
		c4.967-4.322,7.45-9.33,7.45-15.026c0-5.921-2.483-10.987-7.45-15.198c-4.964-4.21-10.96-6.316-17.985-6.316
		c-7.831,0-14.421,2.106-19.762,6.316c-5.351,4.211-8.021,9.276-8.021,15.198C866.558,48.347,869.229,53.354,874.58,57.676z"/>
	<path fill="#4C3B4D" d="M911.063,108.323c-4.478-2.766-10.044-4.153-16.815-4.153c-6.77,0-12.523,1.387-16.874,4.153
		c-4.354,2.772-6.715,6.415-6.715,10.946v148.707c0,4.028,2.451,7.613,6.924,10.756c4.473,3.151,10.08,4.72,16.615,4.72
		c6.287,0,11.727-1.636,16.446-4.907c4.716-3.266,7.015-6.795,7.015-10.568V119.269
		C917.659,114.738,915.532,111.095,911.063,108.323z"/>
	<path fill="#4C3B4D" d="M344.177,74.038c0,0-33.333,13.333-40,32l-4.908,2.706l-0.022,0.001
		c-10.348-4.549-21.524-6.838-33.542-6.838c-12.032,0-23.147,2.219-33.362,6.612l-3.351-2.481c-6.667-18.667-40-32-40-32
		s-15.333,38.667,0,73.333l0.351,3.188c-3.774,8.692-5.685,18.014-5.685,27.965v30.949c0,20.381,8.246,38.375,24.605,53.974
		c16.354,15.604,35.514,23.399,57.405,23.399s41.054-7.795,57.412-23.399c16.354-15.599,24.577-33.593,24.577-53.974v-30.949
		c0-10.001-1.891-19.337-5.653-28.011l2.171-3.143C359.51,112.705,344.177,74.038,344.177,74.038z M298.659,209.362
		c0,8.988-3.207,16.979-9.872,23.973c-6.669,6.994-14.341,10.486-23.147,10.486c-9.058,0-16.743-3.492-23.285-10.486
		c-6.545-6.994-9.696-14.985-9.696-23.973v-30.72c0-8.74,3.184-16.542,9.729-23.406c6.542-6.864,14.301-10.302,23.359-10.302
		c8.806,0,16.392,3.497,23.062,10.491c6.665,6.994,9.851,14.731,9.851,23.218V209.362z"/>
</g>
<path fill="#999999" d="M265.971,209.37c1.5,0,2.312-1,2.312-1c3.125-6.25,9-13,9-13c0-1.657-1.343-3-3-3c0,0-4.687-1-8.312-1
	s-8.312,1-8.312,1c-1.657,0-3,1.343-3,3c0,0,5.875,6.75,9,13C263.659,208.37,264.471,209.37,265.971,209.37z"/>
<path fill="#999999" d="M357.659,202.37h-73c-1.104,0-2-0.896-2-2s0.896-2,2-2h73c1.104,0,2,0.896,2,2
	S358.763,202.37,357.659,202.37z"/>
<path fill="#999999" d="M284.656,196.371c-0.973,0-1.826-0.711-1.975-1.702c-0.165-1.092,0.587-2.111,1.679-2.276l68-10.25
	c1.09-0.164,2.111,0.587,2.276,1.679s-0.587,2.111-1.679,2.276l-68,10.25C284.856,196.363,284.755,196.371,284.656,196.371z"/>
<path fill="#999999" d="M352.661,217.371c-0.099,0-0.2-0.008-0.301-0.023l-68-10.25c-1.092-0.165-1.844-1.184-1.679-2.276
	c0.165-1.092,1.183-1.842,2.276-1.679l68,10.25c1.092,0.165,1.844,1.184,1.679,2.276
	C354.487,216.659,353.634,217.371,352.661,217.371z"/>
<path fill="#999999" d="M246.659,202.37h-73c-1.104,0-2-0.896-2-2s0.896-2,2-2h73c1.104,0,2,0.896,2,2
	S247.763,202.37,246.659,202.37z"/>
<path fill="#999999" d="M246.661,196.371c-0.099,0-0.2-0.008-0.301-0.023l-68-10.25c-1.092-0.165-1.844-1.184-1.679-2.276
	c0.165-1.091,1.182-1.844,2.276-1.679l68,10.25c1.092,0.165,1.844,1.184,1.679,2.276
	C248.487,195.659,247.634,196.371,246.661,196.371z"/>
<path fill="#999999" d="M178.656,217.371c-0.973,0-1.826-0.711-1.975-1.702c-0.165-1.092,0.587-2.111,1.679-2.276l68-10.25
	c1.095-0.163,2.111,0.587,2.276,1.679c0.165,1.092-0.587,2.111-1.679,2.276l-68,10.25
	C178.856,217.363,178.755,217.371,178.656,217.371z"/>
</svg>
